<?xml version="1.0" encoding="UTF-8"?>
<svg width="56px" height="56px" viewBox="0 0 56 56" version="1.1" xmlns="http://www.w3.org/2000/svg" xmlns:xlink="http://www.w3.org/1999/xlink">
    <!-- Generator: Sketch 46.2 (44496) - http://www.bohemiancoding.com/sketch -->
    <title>Fill 1</title>
    <desc>Created with Sketch.</desc>
    <defs></defs>
    <g id="Notifications-/-Unsupported-browser" stroke="none" stroke-width="1" fill="none" fill-rule="evenodd">
        <g id="Notifications-Banner-bar" transform="translate(-694.000000, -570.000000)" fill="#FFFFFF">
            <g id="Group-4" transform="translate(317.000000, 314.000000)">
                <g id="Group-5" transform="translate(43.000000, 256.000000)">
                    <g id="Group-3" transform="translate(284.000000, 0.000000)">
                        <path d="M74.3517296,55.7654366 C60.6111649,53.9770925 50,42.2278905 50,28.0004044 C50,22.3854409 51.652459,17.1562938 54.4979562,12.7740016 L66.2665704,33.1583737 C68.2514624,37.6668448 72.7583159,40.8140391 78.0004044,40.8140391 C80.078313,40.8140391 82.0405575,40.3190294 83.776327,39.4406297 L74.3517296,55.7654366 Z M76.4328735,55.9571315 L87.8237597,36.2279194 C89.6897523,34.0019932 90.8140391,31.1322308 90.8140391,28.0004044 C90.8140391,23.3859753 88.3745793,19.3409692 84.7153896,17.0851159 L103.792677,17.0851159 C105.214617,20.4393731 106,24.1276811 106,28.0004044 C106,43.4646061 93.4637972,56.0008088 78.0004044,56.0008088 C77.4738499,56.0008088 76.9513396,55.9854409 76.4328735,55.9571315 L76.4328735,55.9571315 Z M55.7015094,11.0624973 C60.8166101,4.3394237 68.9009605,0 78.0004044,0 C88.8469416,0 98.2529357,6.16740088 102.902954,15.1867697 L77.5256157,15.1867697 L77.5256157,15.1948581 C70.8324691,15.4391276 65.4496425,20.8162923 65.1956669,27.5062035 L55.7015094,11.0624973 Z M78.0004044,37.9661154 C72.4962519,37.9661154 68.0338846,33.5045569 68.0338846,28.0004044 C68.0338846,22.4962519 72.4962519,18.0338846 78.0004044,18.0338846 C83.5037481,18.0338846 87.9661154,22.4962519 87.9661154,28.0004044 C87.9661154,33.5045569 83.5037481,37.9661154 78.0004044,37.9661154 L78.0004044,37.9661154 Z" id="Fill-1"></path>
                    </g>
                </g>
            </g>
        </g>
    </g>
</svg>