<?xml version="1.0" encoding="UTF-8"?>
<svg width="56px" height="56px" viewBox="0 0 56 56" version="1.1" xmlns="http://www.w3.org/2000/svg" xmlns:xlink="http://www.w3.org/1999/xlink">
    <!-- Generator: Sketch 46.2 (44496) - http://www.bohemiancoding.com/sketch -->
    <title>Fill 3</title>
    <desc>Created with Sketch.</desc>
    <defs></defs>
    <g id="Notifications-/-Unsupported-browser" stroke="none" stroke-width="1" fill="none" fill-rule="evenodd">
        <g id="Notifications-Banner-bar" transform="translate(-552.000000, -570.000000)" fill="#FFFFFF">
            <g id="Group-4" transform="translate(317.000000, 314.000000)">
                <g id="Group-5" transform="translate(43.000000, 256.000000)">
                    <g id="Group-2" transform="translate(142.000000, 0.000000)">
                        <path d="M78.0665689,1.87110459 C83.0333272,1.87110459 87.6780035,3.22958871 91.6354655,5.58780234 L83.8034537,5.38610253 C88.3110061,6.22798001 91.1268311,8.86044161 91.1268311,8.86044161 L86.9533192,9.95583902 C94.1626924,11.7137366 97.2934243,18.3243882 97.2934243,18.3243882 L95.4996512,18.5643552 C96.9793147,22.116823 95.4996512,27.8887861 95.4996512,27.8887861 L93.2347138,26.3788278 C93.2347138,26.3788278 93.2642114,30.8552881 92.1847586,33.2174879 C86.8863517,42.5116239 76.2592429,39.9086599 73.9640106,39.1807867 C71.6695756,38.4521162 70.5430861,36.7452415 70.5430861,36.7452415 C70.5430861,36.7452415 71.4112723,36.8616375 74.17448,36.8616375 C76.9376877,36.8616375 80.5451646,33.8257762 82.1452102,33.3004 C83.746053,32.7758211 83.8863659,32.3158179 82.6339137,30.8552881 C81.3806643,29.3955554 78.0833108,29.8962174 78.0833108,29.8962174 C78.0833108,29.8962174 73.766297,32.1013624 70.4824965,31.1996925 C67.198696,30.2972253 67.322267,25.4062042 67.322267,25.4062042 L71.4112723,25.3201031 L71.4415671,21.7213957 C71.4415671,21.7213957 75.8749769,18.3275771 76.9536324,17.0743277 C78.0330851,15.8218755 76.7806329,15.0134818 76.7806329,15.0134818 L70.5462751,15.0134818 C70.5462751,13.7036288 69.5872044,12.3132554 69.5872044,12.3132554 L71.5587603,8.19794143 L65.2980938,11.7360591 L58.8405108,11.1572683 L58.4363139,10.5824637 C63.2356534,5.24578962 70.2457184,1.87110459 78.0665689,1.87110459 M78.0003986,0 C69.808835,0 62.4400154,3.46796122 57.3201885,8.9951739 L55.0751819,5.80225788 L53.570007,14.1165952 C51.3002861,18.104352 50,22.7003972 50,27.5985935 C50,42.8408809 62.5364805,55.1971869 78.0003986,55.1971869 C93.4635195,55.1971869 106,42.8408809 106,27.5985935 C106,12.356306 93.4635195,0 78.0003986,0" id="Fill-3"></path>
                    </g>
                </g>
            </g>
        </g>
    </g>
</svg>