<?xml version="1.0" encoding="UTF-8"?>
<svg width="56px" height="55px" viewBox="0 0 56 55" version="1.1" xmlns="http://www.w3.org/2000/svg" xmlns:xlink="http://www.w3.org/1999/xlink">
    <!-- Generator: Sketch 46.2 (44496) - http://www.bohemiancoding.com/sketch -->
    <title>Fill 1</title>
    <desc>Created with Sketch.</desc>
    <defs></defs>
    <g id="Notifications-/-Unsupported-browser" stroke="none" stroke-width="1" fill="none" fill-rule="evenodd">
        <g id="Notifications-Banner-bar" transform="translate(-410.000000, -570.000000)" fill="#FFFFFF">
            <g id="Group-4" transform="translate(317.000000, 314.000000)">
                <g id="Group-5" transform="translate(43.000000, 256.000000)">
                    <g id="Group">
                        <path d="M89.9296894,5.31611796 C92.2585082,4.1913658 98.0255046,1.81245368 101.299053,4.02203986 C103.466112,5.48466119 105.204246,7.78164982 102.219257,15.5171582 C99.35637,10.9130057 95.049125,7.30132769 89.9296894,5.31611796 L89.9296894,5.31611796 Z M69.7441583,25.1455167 C69.9453143,19.3860865 74.9577798,14.7746287 81.1163914,14.7746287 C87.2744812,14.7746287 92.2874684,19.3860865 92.4886245,25.1455167 L69.7441583,25.1455167 Z M55.2455264,51.308332 C53.4805186,49.4981881 53.1684788,45.0894518 57.0632365,37.0557315 C59.0288785,42.7068871 62.9512918,47.4425346 68.0211559,50.4478744 C65.4997908,51.8356166 58.8060675,54.9601891 55.2455264,51.308332 L55.2455264,51.308332 Z M106,28.7858941 C106,24.3588946 104.855419,20.1998424 102.848294,16.5858163 C111.403559,-2.77656642 93.6812114,0.0594474804 92.6944768,0.252515584 C88.939824,0.987217989 85.4661636,2.16675974 82.2617548,3.66199393 C81.7895207,3.63538184 81.3141557,3.62077128 80.8351381,3.62077128 C68.8771781,3.62077128 58.8676405,11.9613134 56.3058355,23.1423047 C62.6084655,16.0715767 67.019289,13.2186042 69.6606693,12.0768933 C69.2390504,12.453637 68.8263021,12.8345552 68.4203372,13.2183433 C68.2851896,13.3459248 68.154999,13.4753326 68.0216777,13.6036968 C67.7539914,13.8612079 67.4868269,14.1189799 67.225924,14.3791 C67.0706868,14.5338154 66.9196241,14.6898353 66.766735,14.8455943 C66.5353142,15.0811896 66.3044152,15.3165239 66.0784733,15.5534237 C65.9180181,15.721706 65.7614764,15.8905102 65.603891,16.0590534 C65.3928206,16.2849953 65.1830548,16.511198 64.9772024,16.7381835 C64.817269,16.9145538 64.6599446,17.0909242 64.502881,17.2678163 C64.3077257,17.4874965 64.1143967,17.7071767 63.9236767,17.9273787 C63.7655696,18.1100107 63.608767,18.2926427 63.4535298,18.4755355 C63.272985,18.6889541 63.0945275,18.9023726 62.9178963,19.1157911 C62.7616155,19.3046848 62.6055956,19.4933175 62.4529674,19.6819503 C62.287555,19.8859763 62.1257952,20.0897414 61.9640355,20.2932456 C61.8077547,20.4904882 61.651213,20.6874698 61.4983239,20.8844515 C61.3527401,21.0720406 61.2113308,21.2588471 61.0688778,21.4459144 C60.9081617,21.6572457 60.746141,21.868577 60.5895993,22.0788647 C60.477672,22.2294056 60.37018,22.3783812 60.2603399,22.5284003 C59.2660392,23.8850951 58.3575755,25.2156996 57.537036,26.4938626 C57.5349488,26.4969934 57.5328616,26.5001243 57.5310353,26.5032551 C57.3150077,26.8398198 57.1065464,27.1714273 56.9022594,27.5001649 C56.8913015,27.5179063 56.8798218,27.5359086 56.8688639,27.5539109 C56.664316,27.883953 56.4668126,28.2082552 56.2742663,28.5291657 C56.2674828,28.5403845 56.2604384,28.5518642 56.253655,28.5630831 C55.7357628,29.4269324 55.2559625,30.2594733 54.8236465,31.0432255 C52.5571835,35.1506189 51.4538254,38.0202893 51.4060801,38.1906589 C44.2489934,63.7779225 66.5864511,52.9726312 69.7034574,51.3597299 C73.0597116,53.0177674 76.8381066,53.9510169 80.8351381,53.9510169 C91.7774033,53.9510169 101.087199,46.9663869 104.552511,37.2125341 L91.329955,37.2125341 C89.3734445,40.5179122 85.6067902,42.7567195 81.2794556,42.7567195 C74.9392557,42.7567195 69.7997306,37.9529764 69.7997306,32.0270901 L105.792843,32.0270901 C105.929034,30.9657373 106,29.8840342 106,28.7858941 L106,28.7858941 Z" id="Fill-1"></path>
                    </g>
                </g>
            </g>
        </g>
    </g>
</svg>