<?xml version="1.0" encoding="UTF-8"?>
<svg width="75px" height="75px" viewBox="0 0 75 75" version="1.1" xmlns="http://www.w3.org/2000/svg" xmlns:xlink="http://www.w3.org/1999/xlink">
    <!-- Generator: Sketch 46.2 (44496) - http://www.bohemiancoding.com/sketch -->
    <title>Brand / Logo</title>
    <desc>Created with Sketch.</desc>
    <defs></defs>
    <g id="Notifications-/-Unsupported-browser" stroke="none" stroke-width="1" fill="none" fill-rule="evenodd">
        <g id="Notifications-Banner-bar" transform="translate(-541.000000, -314.000000)" fill="#58CEF0">
            <g id="Group-4" transform="translate(317.000000, 314.000000)">
                <g id="Brand-/-Logo" transform="translate(224.000000, 0.000000)">
                    <path d="M44.5606571,24.5852286 L44.5606571,24.5852286 L44.5532286,24.5852286 C44.5272286,24.5852286 44.5049429,24.6818 44.4826571,24.7003714 L44.5606571,24.6743714 C38.6772286,28.6635143 37.3438,36.6120857 41.3775143,42.4323714 L52.2083714,35.2415143 L52.2083714,35.2340857 C55.9226571,33.2432286 59.0018,33.9786571 61.0112286,36.8943714 C63.0280857,39.8026571 62.1886571,43.7732286 59.2432286,45.7640857 L49.4672286,52.3532286 L43.1900857,56.5800857 C37.2992286,60.5618 35.7875143,68.5103714 39.8175143,74.3232286 L50.4700857,67.1138 L66.4563714,56.2978 C75.2852286,50.3252286 77.5435143,38.3503714 71.5003714,29.6218 C65.4572286,20.9043714 53.3932286,17.1566571 44.5606571,24.5852286" id="Fill-3"></path>
                    <path d="M29.9211714,49.6637143 C37.3497429,45.6782857 37.6246,37.8968571 33.5908857,32.0802857 L23.0868857,39.442 L23.1648857,39.442 C20.2231714,39.442 16.2340286,40.3854286 14.2208857,37.4734286 C12.2040286,34.5725714 12.9951714,32.0134286 15.9406,28.2991429 L15.9480286,28.2991429 L25.6720286,21.866 L31.9306,17.706 C37.8251714,13.7205714 39.3257429,5.81285714 35.2957429,0 L24.6357429,7.228 L8.6606,18.0365714 L8.64202857,18.0588571 C-0.183114286,24.0351429 -2.7534,35.9505714 3.29345714,44.668 C9.34031429,53.3965714 22.4926,55.6288571 29.9211714,49.6562857 L29.9211714,49.6637143 Z" id="Fill-1"></path>
                </g>
            </g>
        </g>
    </g>
</svg>